<?xml version="1.0" encoding="utf-8"?><svg xmlns="http://www.w3.org/2000/svg" height="100" width="100" viewBox="0 0 100 100"><g stroke="rgba(0,0,0,.2)"><path fill="#1a1a1a" d="M51.9,29h-3.2c-2,0-3.6-1.6-3.6-3.6V4.9c0-2,1.6-3.6,3.6-3.6h3.2c2,0,3.6,1.6,3.6,3.6v20.5 C55.6,27.4,53.9,29,51.9,29z"/><path fill="#333" d="M41.2,30.9l-2.8,1.6c-1.7,1-4,0.4-5-1.3L23.2,13.4c-1-1.7-0.4-4,1.3-5l2.8-1.6c1.7-1,4-0.4,5,1.3l10.2,17.7 C43.5,27.6,42.9,29.9,41.2,30.9z"/><path fill="#4d4d4d" d="M32.8,37.8l-1.6,2.8c-1,1.7-3.2,2.3-5,1.3L8.5,31.7c-1.7-1-2.3-3.2-1.3-5L8.7,24c1-1.7,3.2-2.3,5-1.3 l17.7,10.2C33.2,33.9,33.8,36.1,32.8,37.8z"/><path fill="#666" d="M29,48.1v3.2c0,2-1.6,3.6-3.6,3.6H4.9c-2,0-3.6-1.6-3.6-3.6v-3.2c0-2,1.6-3.6,3.6-3.6h20.5 C27.4,44.4,29,46.1,29,48.1z"/><path fill="#808080" d="M30.9,58.8l1.6,2.8c1,1.7,0.4,4-1.3,5L13.4,76.8c-1.7,1-4,0.4-5-1.3l-1.6-2.8c-1-1.7-0.4-4,1.3-5l17.7-10.2 C27.6,56.5,29.9,57.1,30.9,58.8z"/><path fill="#999" d="M37.8,67.2l2.8,1.6c1.7,1,2.3,3.2,1.3,5L31.7,91.5c-1,1.7-3.2,2.3-5,1.3L24,91.3c-1.7-1-2.3-3.2-1.3-5 l10.2-17.7C33.9,66.8,36.1,66.2,37.8,67.2z"/><path fill="#b3b3b3" d="M48.1,71h3.2c2,0,3.6,1.6,3.6,3.6v20.5c0,2-1.6,3.6-3.6,3.6h-3.2c-2,0-3.6-1.6-3.6-3.6V74.6 C44.4,72.6,46.1,71,48.1,71z"/><path fill="#ccc" d="M58.8,69.1l2.8-1.6c1.7-1,4-0.4,5,1.3l10.2,17.7c1,1.7,0.4,4-1.3,5l-2.8,1.6c-1.7,1-4,0.4-5-1.3L57.5,74.1 C56.5,72.4,57.1,70.1,58.8,69.1z"/><path fill="#e6e6e6" d="M67.2,62.2l1.6-2.8c1-1.7,3.2-2.3,5-1.3l17.7,10.2c1.7,1,2.3,3.2,1.3,5L91.3,76c-1,1.7-3.2,2.3-5,1.3 L68.5,67.1C66.8,66.1,66.2,63.9,67.2,62.2z"/><path fill="#e6e6e6" d="M71,51.9v-3.2c0-2,1.6-3.6,3.6-3.6h20.5c2,0,3.6,1.6,3.6,3.6v3.2c0,2-1.6,3.6-3.6,3.6H74.6 C72.6,55.6,71,53.9,71,51.9z"/><path fill="#e6e6e6" d="M69.1,41.2l-1.6-2.8c-1-1.7-0.4-4,1.3-5l17.7-10.2c1.7-1,4-0.4,5,1.3l1.6,2.8c1,1.7,0.4,4-1.3,5L74.1,42.5 C72.4,43.5,70.1,42.9,69.1,41.2z"/><path fill="#e6e6e6" d="M62.2,32.8l-2.8-1.6c-1.7-1-2.3-3.2-1.3-5L68.3,8.5c1-1.7,3.2-2.3,5-1.3L76,8.7c1.7,1,2.3,3.2,1.3,5L67.1,31.5 C66.1,33.2,63.9,33.8,62.2,32.8z"/></g></svg>